<?xml version="1.0" encoding="UTF-8"?>
<svg id="Layer_1" data-name="Layer 1" xmlns="http://www.w3.org/2000/svg" viewBox="0 0 189.52 65.54">
  <defs>
    <style>
      .cls-1 {
        fill: #cad3e0;
      }
    </style>
  </defs>
  <circle cx="33.86" cy="31.13" r="4.18"/>
  <g>
    <path class="cls-1" d="M28.74,44.32c-.55,0-1.1-.21-1.52-.63l-10.18-10.18c-.64-.64-.99-1.48-.99-2.38s.35-1.75.99-2.38l10.2-10.2c.84-.84,2.2-.84,3.04,0,.84.84.84,2.2,0,3.04l-9.54,9.54,9.53,9.53c.84.84.84,2.2,0,3.04-.42.42-.97.63-1.52.63Z"/>
    <circle cx="28.99" cy="19.84" r="2.15"/>
    <circle cx="28.99" cy="42.42" r="2.15"/>
    <circle cx="18.16" cy="31.12" r="2.15"/>
  </g>
  <g>
    <path class="cls-1" d="M38.93,44.34c-.55,0-1.1-.21-1.52-.63-.84-.84-.84-2.2,0-3.04l9.55-9.55-9.57-9.57c-.84-.84-.84-2.2,0-3.04.84-.84,2.2-.84,3.04,0l10.23,10.23c.64.64.99,1.48.99,2.38s-.35,1.75-.99,2.38l-10.21,10.21c-.42.42-.97.63-1.52.63ZM47.61,31.78h0,0Z"/>
    <circle cx="38.7" cy="42.42" r="2.15"/>
    <circle cx="38.7" cy="19.84" r="2.15"/>
    <circle cx="49.44" cy="31.12" r="2.15"/>
  </g>
  <g>
    <path d="M58.96,22.87h3.54v1.39h-5.02v-7.37h4.96v1.39h-3.49v1.58h3.13v1.39h-3.13v1.63Z"/>
    <path d="M68.59,24.26h-1.69l-1.22-1.78-1.23,1.78h-1.66l1.95-2.73-1.92-2.71h1.69l1.19,1.75,1.18-1.75h1.68l-1.93,2.71,1.97,2.73Z"/>
    <path d="M72.74,18.81h1.39v5.45h-1.39v-.65c-.48.52-1.07.78-1.77.78-.76,0-1.39-.27-1.9-.82-.51-.55-.76-1.22-.76-2.04s.25-1.49.76-2.04c.51-.55,1.14-.82,1.9-.82.71,0,1.3.26,1.77.78v-.65ZM71.23,23.04c.43,0,.79-.14,1.08-.43.29-.29.43-.65.43-1.08s-.14-.79-.43-1.08c-.29-.29-.65-.43-1.08-.43s-.78.14-1.07.43c-.29.29-.43.65-.43,1.08s.14.79.43,1.08c.29.29.64.43,1.07.43Z"/>
    <path d="M77.72,24.39c-.83,0-1.53-.27-2.09-.82-.56-.55-.84-1.22-.84-2.04s.28-1.49.84-2.04c.56-.55,1.26-.82,2.09-.82.54,0,1.03.12,1.47.37.44.24.79.57,1.04.99l-1.21.73c-.13-.22-.3-.4-.53-.53-.23-.13-.48-.2-.77-.2-.43,0-.78.14-1.07.43-.29.29-.43.65-.43,1.08s.14.79.43,1.08c.29.29.64.43,1.07.43.28,0,.54-.07.77-.2.23-.13.41-.31.53-.54l1.21.73c-.25.42-.6.75-1.04,1-.44.24-.93.37-1.47.37Z"/>
    <path d="M84.82,18.81h1.39v5.45h-1.39v-.65c-.48.52-1.07.78-1.77.78-.76,0-1.39-.27-1.9-.82-.51-.55-.76-1.22-.76-2.04s.25-1.49.76-2.04c.51-.55,1.14-.82,1.9-.82.71,0,1.3.26,1.77.78v-.65ZM83.31,23.04c.43,0,.79-.14,1.08-.43.29-.29.43-.65.43-1.08s-.14-.79-.43-1.08c-.29-.29-.65-.43-1.08-.43s-.78.14-1.07.43c-.29.29-.43.65-.43,1.08s.14.79.43,1.08c.29.29.64.43,1.07.43Z"/>
    <path d="M89.09,24.39c-.88,0-1.65-.28-2.3-.84l.67-.92c.46.4.99.61,1.59.61.29,0,.52-.05.7-.14.18-.09.27-.22.27-.38,0-.09-.03-.16-.08-.23-.05-.07-.13-.12-.24-.17-.11-.05-.22-.09-.32-.12-.1-.03-.25-.07-.43-.11-.13-.03-.22-.05-.3-.07-.07-.02-.17-.04-.3-.08-.13-.04-.23-.07-.31-.1s-.17-.07-.28-.13c-.11-.05-.2-.11-.26-.16-.07-.06-.14-.12-.21-.2-.07-.08-.13-.17-.18-.26-.04-.09-.08-.19-.11-.31-.03-.12-.04-.25-.04-.38,0-.37.1-.69.31-.96.21-.26.47-.46.8-.58.33-.12.7-.19,1.11-.19.8,0,1.51.24,2.11.71l-.67.93c-.45-.33-.92-.5-1.41-.5-.25,0-.46.04-.62.12-.16.08-.24.2-.24.35,0,.09.02.16.07.23.05.06.13.12.24.17.11.05.22.09.32.11.1.03.25.06.43.1.16.03.29.06.39.09.1.02.22.06.38.11s.28.1.38.16.21.12.32.21c.12.09.21.18.27.28.07.1.12.22.17.37s.07.3.07.47c0,.37-.1.7-.31.97-.21.27-.49.48-.84.61-.35.13-.74.2-1.18.2Z"/>
    <path d="M95.28,20.08h-1.47v2.26c0,.47.25.7.75.7.21,0,.45-.06.71-.18v1.29c-.29.16-.63.23-1.02.23-.61,0-1.07-.16-1.38-.49-.31-.33-.46-.77-.46-1.33v-2.49h-.87v-1.27h.87v-1.38h1.39v1.38h1.47v1.27Z"/>
    <path d="M101.25,21.54c0,.17-.01.34-.03.49h-4.22c.1.34.28.62.56.82.27.2.61.3,1,.3.32,0,.61-.06.87-.19.26-.13.47-.29.63-.48l.93.81c-.29.34-.65.61-1.07.8-.43.19-.89.29-1.4.29-.57,0-1.09-.13-1.55-.38-.46-.25-.82-.6-1.09-1.04-.26-.44-.39-.93-.39-1.46s.13-1.01.38-1.44c.25-.43.6-.77,1.04-1.02.44-.25.93-.37,1.47-.37.82,0,1.5.27,2.05.82.55.54.82,1.23.82,2.05ZM99.25,20.2c-.25-.2-.55-.31-.88-.31s-.63.1-.88.31-.42.48-.51.82h2.78c-.09-.34-.26-.61-.51-.82Z"/>
    <path d="M104.85,18.72h.23v1.44h-.23c-.49,0-.88.14-1.16.41s-.41.64-.41,1.11v2.59h-1.39v-5.45h1.39v.7c.42-.53.94-.79,1.57-.79Z"/>
  </g>
  <g>
    <path d="M68.65,45.74c-1.05.43-2.17.64-3.37.64s-2.31-.21-3.36-.64c-1.05-.43-1.95-1.01-2.7-1.75-.75-.74-1.34-1.62-1.78-2.65-.43-1.03-.65-2.13-.65-3.3s.22-2.27.65-3.3c.43-1.03,1.03-1.91,1.78-2.65.75-.74,1.65-1.32,2.7-1.74,1.05-.43,2.17-.64,3.36-.64,1.59,0,3.03.36,4.33,1.09,1.3.73,2.32,1.72,3.06,3,.74,1.27,1.11,2.69,1.11,4.24,0,1.17-.22,2.27-.66,3.3s-1.03,1.91-1.78,2.65c-.75.74-1.65,1.32-2.7,1.75ZM61.59,41.77c.99,1,2.22,1.5,3.7,1.5s2.71-.5,3.7-1.5,1.49-2.24,1.49-3.73-.5-2.73-1.49-3.73-2.22-1.49-3.7-1.49-2.71.5-3.7,1.49-1.49,2.24-1.49,3.73.5,2.73,1.49,3.73Z"/>
    <path d="M82.25,33.91c1.09,0,2.07.27,2.96.81.88.54,1.58,1.29,2.08,2.25.5.95.75,2.01.75,3.17s-.25,2.22-.75,3.17c-.5.95-1.19,1.7-2.08,2.25-.89.54-1.87.81-2.96.81-1.57,0-2.86-.57-3.88-1.71v5.86h-3.03v-16.33h3.03v1.41c1.01-1.13,2.3-1.7,3.88-1.7ZM81.64,43.44c.94,0,1.72-.31,2.34-.94.62-.63.93-1.41.93-2.35s-.31-1.73-.93-2.35c-.62-.63-1.4-.94-2.34-.94s-1.71.32-2.34.95c-.62.63-.93,1.41-.93,2.35s.31,1.72.93,2.35c.62.63,1.4.95,2.34.95Z"/>
    <path d="M101.42,40.17c0,.38-.02.74-.07,1.07h-9.22c.21.75.62,1.35,1.22,1.79.6.44,1.33.66,2.19.66.69,0,1.33-.14,1.9-.42s1.03-.63,1.37-1.05l2.03,1.78c-.63.75-1.41,1.34-2.34,1.75-.93.42-1.95.63-3.05.63-1.25,0-2.37-.27-3.38-.82-1.01-.55-1.8-1.3-2.37-2.26-.57-.96-.85-2.03-.85-3.2s.28-2.21.83-3.15c.55-.95,1.31-1.69,2.28-2.23.97-.54,2.04-.81,3.22-.81,1.79,0,3.27.59,4.47,1.78,1.19,1.19,1.79,2.68,1.79,4.47ZM97.07,37.24c-.55-.45-1.2-.67-1.93-.67s-1.38.22-1.93.67c-.55.44-.92,1.04-1.11,1.78h6.07c-.19-.75-.56-1.34-1.11-1.78Z"/>
    <path d="M109.65,33.91c1.41,0,2.53.42,3.38,1.26.85.84,1.27,1.96,1.27,3.36v7.57h-3.04v-6.59c0-.8-.24-1.45-.71-1.93s-1.11-.72-1.9-.72-1.5.25-2.01.75-.77,1.15-.77,1.97v6.53h-3.03v-11.9h3.03v1.32c.96-1.07,2.22-1.61,3.78-1.61Z"/>
    <path d="M128.77,46.38c-1.19,0-2.31-.21-3.36-.64-1.05-.43-1.95-1.01-2.7-1.75-.75-.74-1.34-1.62-1.78-2.65s-.65-2.13-.65-3.3.22-2.27.65-3.3,1.03-1.91,1.78-2.65c.75-.74,1.65-1.32,2.7-1.74,1.05-.43,2.17-.64,3.36-.64,1.49,0,2.86.32,4.1.97,1.25.65,2.24,1.53,3,2.66l-2.78,1.72c-.47-.7-1.08-1.25-1.83-1.64-.75-.4-1.58-.59-2.48-.59-1.47,0-2.71.5-3.7,1.49-.99,1-1.49,2.24-1.49,3.73s.5,2.73,1.49,3.73c.99,1,2.22,1.5,3.7,1.5.9,0,1.73-.2,2.48-.59.75-.39,1.36-.94,1.83-1.64l2.78,1.72c-.75,1.12-1.75,2.01-3,2.66-1.25.65-2.61.97-4.1.97Z"/>
    <path d="M148.39,30h3.53l-6.4,16.1h-3.3l-6.4-16.1h3.6l4.5,11.83,4.48-11.83Z"/>
    <path d="M166.26,30h3.98v16.1h-3.23v-11.06l-4.46,8.17h-1.82l-4.43-8.17v11.06h-3.22v-16.1h4.02l4.57,8.38,4.59-8.38Z"/>
  </g>
</svg>